<svg height='100px' width='100px'  fill="#0059B3" xmlns="http://www.w3.org/2000/svg" xmlns:xlink="http://www.w3.org/1999/xlink" version="1.1" x="0px" y="0px" viewBox="0 0 100 100" style="enable-background:new 0 0 100 100;" xml:space="preserve"><path d="M60.1,55.1V27.9H49.2v35.6C53.5,61.7,57.3,58.8,60.1,55.1z"></path><path d="M34.2,64.7c1.8,0.4,3.6,0.6,5.5,0.6c1.9,0,3.7-0.2,5.5-0.6v-19H34.2V64.7z"></path><path d="M30.2,63.5V39.7H19.3v15.4C22.1,58.8,25.9,61.7,30.2,63.5z"></path><path d="M94.9,87.2L67.7,60c4.1-5.7,6.6-12.7,6.6-20.3c0-19.1-15.5-34.7-34.7-34.7S5.1,20.6,5.1,39.7s15.5,34.7,34.7,34.7  c7.6,0,14.6-2.5,20.3-6.6l27.2,27.2L94.9,87.2z M12.3,39.7c0-15.1,12.3-27.4,27.4-27.4s27.4,12.3,27.4,27.4  c0,15.1-12.3,27.4-27.4,27.4S12.3,54.8,12.3,39.7z"></path></svg>