<svg height='100px' width='100px'  fill="#0D395F" xmlns="http://www.w3.org/2000/svg" xmlns:xlink="http://www.w3.org/1999/xlink" version="1.1" x="0px" y="0px" viewBox="0 0 24 24" style="enable-background:new 0 0 24 24;" xml:space="preserve"><g><g><g><path d="M16.501,2c-0.069,0-0.14-0.015-0.207-0.045C14.902,1.321,13.29,1,11.501,1C9.7,1,8.088,1.321,6.71,1.954     C6.459,2.069,6.162,1.96,6.047,1.709C5.932,1.458,6.042,1.161,6.292,1.046C7.802,0.352,9.554,0,11.501,0     c1.933,0,3.685,0.352,5.207,1.045c0.251,0.114,0.362,0.411,0.248,0.662C16.873,1.892,16.691,2,16.501,2z"></path></g><g><path d="M4.501,6C4.375,6,4.248,5.952,4.15,5.855C3.954,5.662,3.952,5.345,4.146,5.148C6.18,3.089,8.723,2,11.499,2     c2.787,0,5.332,1.089,7.359,3.149c0.194,0.196,0.191,0.514-0.006,0.707c-0.197,0.193-0.514,0.19-0.707-0.006     C16.31,3.985,14.011,3,11.499,3C8.996,3,6.7,3.986,4.857,5.852C4.759,5.95,4.63,6,4.501,6z"></path></g><g><path d="M19.499,13c-0.276,0-0.5-0.224-0.5-0.5c0-4.136-3.364-7.5-7.5-7.5c-0.63,0-1.256,0.078-1.858,0.231     C9.371,5.3,9.1,5.139,9.032,4.87C8.964,4.603,9.125,4.331,9.393,4.263C10.077,4.088,10.785,4,11.499,4c4.687,0,8.5,3.813,8.5,8.5     C19.999,12.776,19.775,13,19.499,13z"></path></g><g><path d="M3.501,13c-0.002,0-0.005,0-0.008,0c-0.276-0.005-0.497-0.231-0.492-0.508c0.036-2.279,0.913-4.4,2.47-5.974     c0.527-0.534,1.12-0.995,1.76-1.37c0.237-0.139,0.544-0.06,0.684,0.179c0.139,0.238,0.059,0.545-0.179,0.685     c-0.564,0.33-1.087,0.737-1.554,1.21c-1.375,1.389-2.149,3.267-2.181,5.286C3.997,12.781,3.774,13,3.501,13z"></path></g><g><path d="M4.22,17.5c-0.083,0-0.167-0.021-0.245-0.064c-0.241-0.135-0.326-0.44-0.191-0.681l0.281-0.5     c0.602-1.24,0.938-2.53,0.935-3.605c0-1.822,0.672-3.49,1.893-4.725C8.119,6.684,9.755,6,11.499,6c1.877,0,3.663,0.813,4.9,2.232     c0.181,0.209,0.16,0.524-0.048,0.706c-0.208,0.18-0.523,0.16-0.706-0.048C14.598,7.688,13.086,7,11.499,7     c-1.474,0-2.857,0.578-3.895,1.628C6.57,9.674,6,11.093,6,12.623c0.004,1.266-0.359,2.674-1.049,4.096l-0.295,0.526     C4.564,17.408,4.395,17.5,4.22,17.5z"></path></g><g><path d="M18.449,18.91c-0.214,0-0.413-0.139-0.479-0.354l-0.572-1.884c-0.348-1.581-0.377-3.024-0.394-3.887l-0.006-0.272     c0-0.64-0.105-1.256-0.313-1.843c-0.092-0.261,0.044-0.546,0.304-0.639c0.261-0.091,0.547,0.045,0.638,0.305     c0.246,0.694,0.371,1.423,0.371,2.164l0.006,0.266c0.017,0.825,0.044,2.207,0.361,3.653l0.563,1.846     c0.08,0.265-0.069,0.544-0.333,0.624C18.546,18.903,18.497,18.91,18.449,18.91z"></path></g><g><path d="M16.991,21.222c-0.213,0-0.411-0.137-0.478-0.352l-0.462-1.484c-0.832-2.597-1.017-5.421-1.053-6.873     c0-1.942-1.57-3.513-3.5-3.513C9.569,9,8,10.602,8,12.57c0.003,0.826-0.16,3.729-2.385,6.938     c-0.158,0.226-0.471,0.281-0.696,0.126c-0.227-0.157-0.284-0.469-0.126-0.696C6.904,15.893,7.001,13.113,7,12.587     C7,10.05,9.018,8,11.499,8c2.481,0,4.5,2.019,4.5,4.5c0.028,1.113,0.182,4.011,1.006,6.585l0.464,1.488     c0.082,0.264-0.065,0.544-0.329,0.626C17.09,21.215,17.041,21.222,16.991,21.222z"></path></g><g><path d="M9.508,24c-0.106,0-0.213-0.034-0.305-0.104c-0.219-0.169-0.259-0.482-0.091-0.701c3.904-5.072,3.9-10.124,3.887-10.684     c0-0.839-0.674-1.512-1.501-1.512s-1.5,0.673-1.5,1.5c0.006,0.161,0.128,4.438-3.265,8.854c-0.168,0.219-0.481,0.26-0.701,0.092     c-0.219-0.168-0.26-0.482-0.092-0.701c3.175-4.133,3.065-8.061,3.059-8.227c0-1.397,1.121-2.519,2.5-2.519s2.5,1.121,2.5,2.5     c0.015,0.582,0.026,5.953-4.094,11.305C9.807,23.933,9.658,24,9.508,24z"></path></g><g><path d="M11.335,14.998c-0.026,0-0.053-0.002-0.08-0.006c-0.272-0.044-0.458-0.301-0.414-0.573     c0.186-1.159,0.158-1.89,0.158-1.897c-0.012-0.275,0.202-0.509,0.478-0.521c0.284,0.009,0.509,0.2,0.521,0.477     c0.001,0.033,0.035,0.83-0.169,2.1C11.789,14.823,11.577,14.998,11.335,14.998z"></path></g><g><path d="M7.696,23.053c-0.109,0-0.22-0.036-0.312-0.109c-0.216-0.173-0.251-0.487-0.079-0.703     c1.424-1.781,2.463-3.756,3.089-5.868c0.079-0.265,0.358-0.413,0.622-0.338c0.265,0.078,0.416,0.356,0.337,0.621     c-0.663,2.237-1.762,4.326-3.267,6.21C7.988,22.988,7.843,23.053,7.696,23.053z"></path></g><g><path d="M11.874,24c-0.092,0-0.185-0.025-0.268-0.078c-0.233-0.147-0.302-0.457-0.154-0.69c1.277-2.01,2.391-4.628,2.402-4.654     c0.082-0.194,0.268-0.328,0.489-0.304c0.211,0.012,0.391,0.155,0.451,0.358c0.001,0.002,0.225,0.762,0.465,1.479l0.602,1.917     c0.083,0.263-0.064,0.544-0.327,0.627c-0.265,0.084-0.545-0.065-0.627-0.328l-0.599-1.907c-0.027-0.079-0.053-0.16-0.08-0.24     c-0.458,0.974-1.159,2.372-1.933,3.59C12.201,23.918,12.039,24,11.874,24z"></path></g></g></g></svg>