<svg height='100px' width='100px'  fill="#0D395F" xmlns="http://www.w3.org/2000/svg" xmlns:xlink="http://www.w3.org/1999/xlink" version="1.1" x="0px" y="0px" viewBox="0 0 1024 1024" enable-background="new 0 0 1024 1024" xml:space="preserve"><g><g><g><circle cx="514.1" cy="114.6" r="62.6"></circle><g><path d="M573.9,114.6c-0.3,24.8-15.7,47.6-39.2,56.2c-23.4,8.5-50.3,1.3-66.3-17.7c-16.2-19.2-18.5-47.4-5.6-69      c12.8-21.5,38.4-33,62.9-28.1C553.6,61.5,573.6,86.3,573.9,114.6c0,3.6,5.7,3.6,5.6,0c-0.3-27.2-17.2-51.8-42.8-61.4      c-25.8-9.6-55.9-1.4-73.3,19.9c-17.2,21.1-19.6,51.4-5.7,74.8c14,23.5,41.8,35.9,68.6,30.8c30.7-5.8,52.7-33.3,53.1-64.2      C579.5,111,573.9,111,573.9,114.6z"></path></g></g><g><path d="M628.9,330.1H399.3c-9.4,0-17-7.6-17-17v-11.4c0-57.4,46.5-103.9,103.9-103.9H542     c57.4,0,103.9,46.5,103.9,103.9v11.4C646,322.5,638.3,330.1,628.9,330.1z"></path><g><path d="M628.9,327.3c-28.2,0-56.5,0-84.7,0c-41.8,0-83.6,0-125.4,0c-9.6,0-25.6,2.8-31.6-6.7      c-3-4.8-2.2-11-2.2-16.4c0-6.6,0.3-13.2,1.4-19.7c2.7-15.8,9.2-30.7,18.8-43.5c19-25.4,49.3-40.3,81-40.4      c17.7-0.1,35.4,0,53.1,0c28.7,0,56,10.5,76,31.5c10.9,11.4,19,25.4,23.6,40.6c3.8,12.9,4.4,26,4.2,39.3      C643,320.3,637.6,326.9,628.9,327.3c-3.6,0.1-3.6,5.8,0,5.6c7.8-0.3,14.9-4.5,18.1-11.8c2.3-5.2,1.7-11,1.7-16.5      c0-15.3-2.4-30.1-8.3-44.2c-12.6-30.1-39-53.3-70.5-61.8c-21.7-5.9-45.6-3.7-67.9-3.7c-9,0-18-0.4-27,0.6      c-16.5,1.8-32.5,7.3-46.5,16.3c-27.5,17.7-45.7,47.5-48.7,80.1c-0.6,6.1-0.5,12.1-0.5,18.2c0,6.4,1.1,12.3,5.8,17      c4.9,4.9,11,5.8,17.5,5.8c38.1,0,76.3,0,114.4,0c36.6,0,73.3,0.5,109.9,0c0.6,0,1.3,0,1.9,0      C632.6,332.9,632.6,327.3,628.9,327.3z"></path></g></g></g><g><g><circle cx="514.1" cy="756.2" r="62.6"></circle><g><path d="M573.9,756.2c-0.3,24.8-15.7,47.6-39.2,56.2c-23.4,8.5-50.3,1.3-66.3-17.7c-16.2-19.2-18.5-47.4-5.6-69      c12.8-21.5,38.4-33,62.9-28.1C553.6,703.1,573.6,727.9,573.9,756.2c0,3.6,5.7,3.6,5.6,0c-0.3-27.2-17.2-51.8-42.8-61.4      c-25.8-9.6-55.9-1.4-73.3,19.9c-17.2,21.1-19.6,51.4-5.7,74.8c14,23.5,41.8,35.9,68.6,30.8c30.7-5.8,52.7-33.3,53.1-64.2      C579.5,752.6,573.9,752.6,573.9,756.2z"></path></g></g><g><path d="M628.9,971.7H399.3c-9.4,0-17-7.6-17-17v-11.4c0-57.4,46.5-103.9,103.9-103.9H542     c57.4,0,103.9,46.5,103.9,103.9v11.4C646,964.1,638.3,971.7,628.9,971.7z"></path><g><path d="M628.9,968.9c-28.2,0-56.5,0-84.7,0c-41.8,0-83.6,0-125.4,0c-9.6,0-25.6,2.8-31.6-6.7      c-3-4.8-2.2-11-2.2-16.4c0-6.6,0.3-13.2,1.4-19.7c2.7-15.8,9.2-30.7,18.8-43.5c19-25.4,49.3-40.3,81-40.4      c17.7-0.1,35.4,0,53.1,0c28.7,0,56,10.5,76,31.5c10.9,11.4,19,25.4,23.6,40.6c3.8,12.9,4.4,26,4.2,39.3      C643,961.9,637.6,968.5,628.9,968.9c-3.6,0.1-3.6,5.8,0,5.6c7.8-0.3,14.9-4.5,18.1-11.8c2.3-5.2,1.7-11,1.7-16.5      c0-15.3-2.4-30.1-8.3-44.2c-12.6-30.1-39-53.3-70.5-61.8c-21.7-5.9-45.6-3.7-67.9-3.7c-9,0-18-0.4-27,0.6      c-16.5,1.8-32.5,7.3-46.5,16.3c-27.5,17.7-45.7,47.5-48.7,80.1c-0.6,6.1-0.5,12.1-0.5,18.2c0,6.4,1.1,12.3,5.8,17      c4.9,4.9,11,5.8,17.5,5.8c38.1,0,76.3,0,114.4,0c36.6,0,73.3,0.5,109.9,0c0.6,0,1.3,0,1.9,0      C632.6,974.5,632.6,968.9,628.9,968.9z"></path></g></g></g><g><g><g><circle cx="176.2" cy="458.4" r="62.6"></circle><g><path d="M236,458.4c-0.3,24.8-15.7,47.6-39.2,56.2c-23.4,8.5-50.3,1.3-66.3-17.7c-16.2-19.2-18.5-47.4-5.6-69       c12.8-21.5,38.4-33,62.9-28.1C215.7,405.3,235.7,430.1,236,458.4c0,3.6,5.7,3.6,5.6,0c-0.3-27.2-17.2-51.8-42.8-61.4       c-25.8-9.6-55.9-1.4-73.3,19.9c-17.2,21.1-19.6,51.4-5.7,74.8c14,23.5,41.8,35.9,68.6,30.8c30.7-5.8,52.7-33.3,53.1-64.2       C241.7,454.8,236.1,454.8,236,458.4z"></path></g></g><g><path d="M291.1,673.9H61.4c-9.4,0-17-7.6-17-17v-11.4c0-57.4,46.5-103.9,103.9-103.9h55.8      c57.4,0,103.9,46.5,103.9,103.9v11.4C308.1,666.2,300.5,673.9,291.1,673.9z"></path><g><path d="M291.1,671.1c-28.2,0-56.5,0-84.7,0c-41.8,0-83.6,0-125.4,0c-9.6,0-25.6,2.8-31.6-6.7       c-3-4.8-2.2-11-2.2-16.4c0-6.6,0.3-13.2,1.4-19.7c2.7-15.8,9.2-30.7,18.8-43.5c19-25.4,49.3-40.3,81-40.4       c17.7-0.1,35.4,0,53.1,0c28.7,0,56,10.5,76,31.5c10.9,11.4,19,25.4,23.6,40.6c3.8,12.9,4.4,26,4.2,39.3       C305.2,664.1,299.8,670.7,291.1,671.1c-3.6,0.1-3.6,5.8,0,5.6c7.8-0.3,14.9-4.5,18.1-11.8c2.3-5.2,1.7-11,1.7-16.5       c0-15.3-2.4-30.1-8.3-44.2c-12.6-30.1-39-53.3-70.5-61.8c-21.7-5.9-45.6-3.7-67.9-3.7c-9,0-18-0.4-27,0.6       c-16.5,1.8-32.5,7.3-46.5,16.3c-27.5,17.7-45.7,47.5-48.7,80.1c-0.6,6.1-0.5,12.1-0.5,18.2c0,6.4,1.1,12.3,5.8,17       c4.9,4.9,11,5.8,17.5,5.8c38.1,0,76.3,0,114.4,0c36.6,0,73.3,0.5,109.9,0c0.6,0,1.3,0,1.9,0       C294.7,676.7,294.7,671.1,291.1,671.1z"></path></g></g></g><g><g><circle cx="847.7" cy="458.4" r="62.6"></circle><g><path d="M907.5,458.4c-0.3,24.8-15.7,47.6-39.2,56.2c-23.4,8.5-50.3,1.3-66.3-17.7c-16.2-19.2-18.5-47.4-5.6-69       c12.8-21.5,38.4-33,62.9-28.1C887.1,405.3,907.1,430.1,907.5,458.4c0,3.6,5.7,3.6,5.6,0c-0.3-27.2-17.2-51.8-42.8-61.4       c-25.8-9.6-55.9-1.4-73.3,19.9c-17.2,21.1-19.6,51.4-5.7,74.8c14,23.5,41.8,35.9,68.6,30.8c30.7-5.8,52.7-33.3,53.1-64.2       C913.1,454.8,907.5,454.8,907.5,458.4z"></path></g></g><g><path d="M962.5,673.9H732.9c-9.4,0-17-7.6-17-17v-11.4c0-57.4,46.5-103.9,103.9-103.9h55.8      c57.4,0,103.9,46.5,103.9,103.9v11.4C979.5,666.2,971.9,673.9,962.5,673.9z"></path><g><path d="M962.5,671.1c-28.2,0-56.5,0-84.7,0c-41.8,0-83.6,0-125.4,0c-9.6,0-25.6,2.8-31.6-6.7       c-3-4.8-2.2-11-2.2-16.4c0-6.6,0.3-13.2,1.4-19.7c2.7-15.8,9.2-30.7,18.8-43.5c19-25.4,49.3-40.3,81-40.4       c17.7-0.1,35.4,0,53.1,0c28.7,0,56,10.5,76,31.5c10.9,11.4,19,25.4,23.6,40.6c3.8,12.9,4.4,26,4.2,39.3       C976.6,664.1,971.2,670.7,962.5,671.1c-3.6,0.1-3.6,5.8,0,5.6c7.8-0.3,14.9-4.5,18.1-11.8c2.3-5.2,1.7-11,1.7-16.5       c0-15.3-2.4-30.1-8.3-44.2c-12.6-30.1-39-53.3-70.5-61.8c-21.7-5.9-45.6-3.7-67.9-3.7c-9,0-18-0.4-27,0.6       c-16.5,1.8-32.5,7.3-46.5,16.3c-27.5,17.7-45.7,47.5-48.7,80.1c-0.6,6.1-0.5,12.1-0.5,18.2c0,6.4,1.1,12.3,5.8,17       c4.9,4.9,11,5.8,17.5,5.8c38.1,0,76.3,0,114.4,0c36.6,0,73.3,0.5,109.9,0c0.6,0,1.3,0,1.9,0       C966.1,676.7,966.1,671.1,962.5,671.1z"></path></g></g></g></g><g><g><g><path d="M347.1,847.2c-56.7-30.3-104-75.7-136.4-131.2c-6.9-11.8-25.3-1.1-18.4,10.8      c34.2,58.5,84.3,106.9,144.1,138.9C348.5,872.1,359.3,853.7,347.1,847.2L347.1,847.2z"></path></g></g><g><g><path d="M826,709.6c-28.1,48.1-67.6,89.2-114.9,118.8c-13.8,8.7-28.2,16.3-43.1,23c-5.2,2.4-6.5,10-3.8,14.6      c3.2,5.4,9.3,6.2,14.6,3.8c53.5-24.1,101.1-61.3,137.2-107.6c10.4-13.3,19.9-27.2,28.4-41.8C851.3,708.5,832.9,697.7,826,709.6      L826,709.6z"></path></g></g><g><g><path d="M670.6,241.3c56.5,24.9,106,64.2,142.1,114.3c3.4,4.7,9.3,6.9,14.6,3.8c4.6-2.7,7.2-9.9,3.8-14.6      c-38.3-53-89.8-95.6-149.8-122c-5.3-2.3-11.4-1.5-14.6,3.8C664.1,231.3,665.3,239,670.6,241.3L670.6,241.3z"></path></g></g><g><g><path d="M342.3,220.8c-59.9,26.4-111.5,69-149.8,122c-3.4,4.7-0.8,11.9,3.8,14.6c5.4,3.1,11.2,0.9,14.6-3.8      c36.2-50.1,85.7-89.5,142.1-114.3c5.3-2.3,6.5-10,3.8-14.6C353.7,219.2,347.6,218.5,342.3,220.8L342.3,220.8z"></path></g></g></g></g></svg>