<svg height='100px' width='100px'  fill="#0D395F" xmlns="http://www.w3.org/2000/svg" xmlns:xlink="http://www.w3.org/1999/xlink" viewBox="0 0 24 24" version="1.1" x="0px" y="0px"><title>icon/design</title><desc>Created with Sketch.</desc><g stroke="none" stroke-width="1" fill="none" fill-rule="evenodd"><path d="M7.5,17.7928932 L17.7928932,7.5 L15.5,5.20710678 L5.20710678,15.5 L7.5,17.7928932 Z M11,15.7071068 L7.85355339,18.8535534 L7.68569534,18.9642383 L2.68569534,20.9642383 C2.27753936,21.1275007 1.87249926,20.7224606 2.03576165,20.3143047 L4.03576165,15.3143047 L4.14644661,15.1464466 L7.29289322,12 L2.14644661,6.85355339 C1.95118446,6.65829124 1.95118446,6.34170876 2.14644661,6.14644661 L6.14644661,2.14644661 C6.34170876,1.95118446 6.65829124,1.95118446 6.85355339,2.14644661 L12,7.29289322 L16.8534466,2.43944661 C17.4397843,1.85310897 18.3897159,1.85310897 18.9745534,2.43944661 L20.5601004,4.02499421 C21.146891,4.61028409 21.146891,5.56021575 20.5605534,6.14655339 L15.7071068,11 L20.8535534,16.1464466 C21.0488155,16.3417088 21.0488155,16.6582912 20.8535534,16.8535534 L16.8535534,20.8535534 C16.6582912,21.0488155 16.3417088,21.0488155 16.1464466,20.8535534 L11,15.7071068 Z M11.7071068,15 L16.5,19.7928932 L19.7928932,16.5 L18.5,15.2071068 L17.8535534,15.8535534 C17.3821489,16.3249579 16.6750421,15.6178511 17.1464466,15.1464466 L17.7928932,14.5 L16.5,13.2071068 L14.8535534,14.8535534 C14.3821489,15.3249579 13.6750421,14.6178511 14.1464466,14.1464466 L15.7928932,12.5 L15,11.7071068 L11.7071068,15 L11.7071068,15 Z M8,11.2928932 L11.2928932,8 L10.5,7.20710678 L9.85355339,7.85355339 C9.38214887,8.32495791 8.67504209,7.61785113 9.14644661,7.14644661 L9.79289322,6.5 L8.5,5.20710678 L6.85355339,6.85355339 C6.38214887,7.32495791 5.67504209,6.61785113 6.14644661,6.14644661 L7.79289322,4.5 L6.5,3.20710678 L3.20710678,6.5 L8,11.2928932 L8,11.2928932 Z M6.6102691,18.3173759 L4.68262412,16.3897309 L3.39752747,19.6024725 L6.6102691,18.3173759 L6.6102691,18.3173759 Z M16.2071068,4.5 L18.5,6.79289322 L19.8534466,5.43944661 C20.049109,5.24378425 20.049109,4.92771591 19.8534466,4.73255339 L18.2669942,3.14610041 C18.0722841,2.95089103 17.7562157,2.95089103 17.5605534,3.14655339 L16.2071068,4.5 L16.2071068,4.5 Z" fill="#0D395F" fill-rule="nonzero"></path></g></svg>