<svg height='100px' width='100px'  fill="#0059B3" xmlns="http://www.w3.org/2000/svg" data-name="Layer 1" viewBox="0 0 100 100" x="0px" y="0px"><title>108</title><path d="M37.3682,65.79282a3.42942,3.42942,0,1,1-3.42938-3.42939A3.42946,3.42946,0,0,1,37.3682,65.79282Zm8.41764-3.42939a3.42945,3.42945,0,1,0,3.42944,3.42939A3.42937,3.42937,0,0,0,45.78584,62.36343Zm-23.69411,0a3.42945,3.42945,0,1,0,3.42938,3.42939A3.42942,3.42942,0,0,0,22.09173,62.36343ZM94.99434,36.97532a23.96056,23.96056,0,0,1-4.1845,13.41383L94.843,62.55594a3.04007,3.04007,0,0,1-3.85149,3.84466L76.76809,61.67607a40.18975,40.18975,0,0,1-13.9223,3.14936c.0158.3214.03.64317.03.96775,0,13.0779-12.98122,23.71737-28.937,23.71737a34.27953,34.27953,0,0,1-13.33766-2.65914L8.78587,90.77517a2.8773,2.8773,0,0,1-3.63959-3.63079L8.48119,77.09182A20.43508,20.43508,0,0,1,5.00273,65.79318c0-11.25908,9.62416-20.704,22.48185-23.1152a23.11276,23.11276,0,0,1-.72832-5.70266c0-15.3845,15.30638-27.89991,34.11953-27.89991S94.99434,21.59082,94.99434,36.97532ZM58.87582,65.79318c0-10.87188-11.18633-19.71743-24.93707-19.71743-13.74976,0-24.93609,8.84555-24.93609,19.71743a16.61106,16.61106,0,0,0,3.30756,9.80257,2.001,2.001,0,0,1,.28222,1.80758l-2.94233,8.87,10.4217-3.46088a2.00654,2.00654,0,0,1,1.45993.0791,30.099,30.099,0,0,0,12.407,2.6191C47.68949,85.51062,58.87582,76.66507,58.87582,65.79318Zm28.105-16.90888a20.12418,20.12418,0,0,0,4.0136-11.909c0-13.17848-13.51149-23.9-30.11862-23.9-16.60811,0-30.1196,10.72149-30.1196,23.9a19.15065,19.15065,0,0,0,.72619,5.192c.81059-.05615,1.62832-.09155,2.45637-.09155,13.88294,0,25.50951,8.056,28.29718,18.76323A36.076,36.076,0,0,0,75.83549,57.7152a2.01991,2.01991,0,0,1,1.46091-.0791l13.15017,4.36906L86.69663,50.69384A2.00031,2.00031,0,0,1,86.98081,48.8843Z"></path></svg>