<svg height='100px' width='100px'  fill="#0059B3" xmlns:x="http://ns.adobe.com/Extensibility/1.0/" xmlns:i="http://ns.adobe.com/AdobeIllustrator/10.0/" xmlns:graph="http://ns.adobe.com/Graphs/1.0/" xmlns="http://www.w3.org/2000/svg" xmlns:xlink="http://www.w3.org/1999/xlink" version="1.1" x="0px" y="0px" viewBox="0 0 100 100" style="enable-background:new 0 0 100 100;" xml:space="preserve"><g><g i:extraneous="self"><g><path d="M67.2,15.6V8.8h-8.8c-1.1-3.6-4.6-6.3-8.7-6.3c-4,0-7.4,2.7-8.5,6.3h-8.8v6.8H14.7v81.9h70.6V15.6H67.2z M37.6,14H46     v-2.6c0-2,1.6-3.7,3.8-3.7c2,0,3.7,1.6,3.7,3.7V14h8.4v7.2H37.6V14z M80.1,92.3H19.9V20.8h12.4v5.7h34.8v-5.7h12.9V92.3z"></path><rect x="29.4" y="34.8" width="41.1" height="5.2"></rect><rect x="29.4" y="48.9" width="41.1" height="5.2"></rect><rect x="29.4" y="63.1" width="41.1" height="5.2"></rect><rect x="29.4" y="77.3" width="41.1" height="5.2"></rect></g></g></g></svg>