<svg height='100px' width='100px'  fill="#FFFFFF" xmlns="http://www.w3.org/2000/svg" xmlns:xlink="http://www.w3.org/1999/xlink" version="1.1" x="0px" y="0px" viewBox="0 0 140 140" style="enable-background:new 0 0 140 140;" xml:space="preserve"><g><g><g><path d="M49.5859375,118.671875c-0.3959961,0-0.7705078-0.2368164-0.9277344-0.6259766l-4.3901367-10.8701172     c-0.1083984-0.2680664-0.0952148-0.5703125,0.0361328-0.828125c0.2421875-0.4833984,5.7978516-12.0517578-8.8095703-24.9160156     c-0.1166992-0.1030273-0.2075195-0.2314453-0.2661133-0.3759766l-6.090332-15.0698242     c-0.7539062-1.8481445-2.5292969-3.0444336-4.5224609-3.0444336c-0.6225586,0-1.2373047,0.1201172-1.8271484,0.3574219     c-1.1171875,0.4516602-2.0239258,1.3061523-2.5517578,2.4057617c-0.6044922,1.2348633-0.6523438,2.6640625-0.1352539,3.9282227     l8.1313477,20.1337891c0.2070312,0.512207-0.0405273,1.0947266-0.5527344,1.3017578     c-0.5112305,0.2070312-1.0952148-0.0410156-1.3017578-0.5527344l-8.1298828-20.1298828     c-0.7314453-1.7875977-0.6630859-3.8134766,0.1884766-5.5537109c0.7407227-1.5424805,2.0219727-2.7480469,3.6035156-3.3881836     c0.8300781-0.3334961,1.6962891-0.5024414,2.5751953-0.5024414c2.8095703,0,5.3125,1.6850586,6.3754883,4.2924805     l6.003418,14.8544922c8.0727539,7.1835938,10.1469727,14.1137695,10.4609375,18.6767578     c0.2792969,4.0625-0.730957,6.9936523-1.1738281,8.0561523l4.230957,10.4755859     c0.2070312,0.512207-0.0405273,1.0947266-0.5527344,1.3017578     C49.8374023,118.6479492,49.7104492,118.671875,49.5859375,118.671875z"></path></g><g><path d="M52.3354492,135H10.6933594c-0.5522461,0-1-0.4477539-1-1v-16.3286133c0-0.5522461,0.4477539-1,1-1h41.6420898     c0.5522461,0,1,0.4477539,1,1V134C53.3354492,134.5522461,52.8876953,135,52.3354492,135z M11.6933594,133h39.6420898     v-14.3286133H11.6933594V133z"></path></g><g><path d="M15.0224609,118.6713867c-0.5522461,0-1-0.4477539-1-1v-6.1044922l-0.425293-0.7285156     c-1.9560547-3.3447266-4.6352539-7.9248047-6.2094727-12.190918c-2.9208984-7.8979492-3.3476562-16.6987305-1.234375-25.4511719     l6.6928711-32.6357422c0.4375-1.8276367,1.6333008-3.3320312,3.2880859-4.1601562     c1.6640625-0.8320312,3.5981445-0.8852539,5.3076172-0.1469727c1.5229492,0.6621094,2.6982422,1.871582,3.3125,3.40625     c0.4643555,1.1621094,0.5751953,2.4257812,0.3203125,3.6547852l-4.7617188,22.1669922     c-0.0073242,0.0341797-0.0166016,0.0683594-0.0273438,0.1015625c-0.1713867,0.5249023-0.7392578,0.8266602-1.2666016,0.6538086     c-0.5249023-0.1723633-0.8154297-0.722168-0.6435547-1.2470703l4.7426758-22.0883789     c0.1733398-0.8364258,0.097168-1.7026367-0.2211914-2.4990234c-0.4169922-1.0419922-1.2158203-1.8642578-2.2504883-2.3139648     c-1.1635742-0.5029297-2.4829102-0.4672852-3.6171875,0.1010742c-1.1254883,0.5629883-1.9389648,1.5854492-2.230957,2.8046875     L8.1049805,73.6318359C6.0776367,82.0307617,6.480957,90.4296875,9.2636719,97.9545898     c1.5136719,4.1010742,4.1411133,8.59375,6.0595703,11.8740234l0.5634766,0.9648438     c0.0888672,0.152832,0.1357422,0.3261719,0.1357422,0.5029297v6.375     C16.0224609,118.2236328,15.574707,118.6713867,15.0224609,118.6713867z"></path></g><g><path d="M13.0024414,97.527832c-0.4067383,0-0.7895508-0.2504883-0.9384766-0.6547852     c-2.2832031-6.1948242-2.8149414-13.15625-1.5380859-20.1318359c0.0996094-0.5429688,0.6206055-0.8984375,1.1640625-0.8037109     c0.5429688,0.0996094,0.902832,0.6206055,0.8037109,1.1640625c-1.2128906,6.6230469-0.7124023,13.2207031,1.4472656,19.0800781     c0.190918,0.5180664-0.0742188,1.0932617-0.5927734,1.2841797C13.234375,97.5078125,13.1171875,97.527832,13.0024414,97.527832z"></path></g><g><path d="M18.1044922,129.9179688c-2.2509766,0-4.0820312-1.8310547-4.0820312-4.0820312s1.8310547-4.0825195,4.0820312-4.0825195     s4.0820312,1.831543,4.0820312,4.0825195S20.3554688,129.9179688,18.1044922,129.9179688z M18.1044922,123.753418     c-1.1479492,0-2.0820312,0.934082-2.0820312,2.0825195c0,1.1479492,0.934082,2.0820312,2.0820312,2.0820312     s2.0820312-0.934082,2.0820312-2.0820312C20.1865234,124.6875,19.2524414,123.753418,18.1044922,123.753418z"></path></g></g><g><g><path d="M90.4140625,118.671875c-0.1245117,0-0.2514648-0.0239258-0.3740234-0.0732422     c-0.512207-0.2070312-0.7597656-0.7895508-0.5527344-1.3017578l4.230957-10.4755859     c-0.4428711-1.0625-1.453125-3.9936523-1.1738281-8.0561523c0.3139648-4.5629883,2.3881836-11.4931641,10.4609375-18.6767578     l6.0019531-14.8515625c1.0644531-2.6103516,3.5673828-4.2954102,6.3769531-4.2954102     c0.8789062,0,1.7451172,0.1689453,2.5732422,0.5019531c1.5834961,0.640625,2.8647461,1.8461914,3.6083984,3.3950195     c0.8486328,1.7338867,0.9169922,3.7597656,0.184082,5.5512695l-8.128418,20.1259766     c-0.206543,0.5117188-0.7895508,0.7597656-1.3017578,0.5527344s-0.7597656-0.7895508-0.5527344-1.3017578l8.1298828-20.1298828     c0.5185547-1.2680664,0.4707031-2.6972656-0.1308594-3.9257812c-0.5307617-1.105957-1.4375-1.9604492-2.5566406-2.4125977     c-0.5878906-0.2368164-1.2026367-0.3569336-1.8251953-0.3569336c-1.9931641,0-3.7685547,1.1962891-4.5239258,3.0473633     l-6.0888672,15.0668945c-0.0585938,0.1445312-0.1494141,0.2729492-0.2661133,0.3759766     c-14.668457,12.9179688-8.8696289,24.7978516-8.8095703,24.9160156c0.1313477,0.2578125,0.1445312,0.5600586,0.0361328,0.828125     l-4.3901367,10.8701172C91.1845703,118.4350586,90.8100586,118.671875,90.4140625,118.671875z"></path></g><g><path d="M129.3066406,135H87.6645508c-0.5522461,0-1-0.4477539-1-1v-16.3286133c0-0.5522461,0.4477539-1,1-1h41.6420898     c0.5522461,0,1,0.4477539,1,1V134C130.3066406,134.5522461,129.8588867,135,129.3066406,135z M88.6645508,133h39.6420898     v-14.3286133H88.6645508V133z"></path></g><g><path d="M124.9775391,118.6713867c-0.5522461,0-1-0.4477539-1-1v-6.375c0-0.1767578,0.046875-0.3500977,0.1357422-0.5029297     l0.5634766-0.9648438c1.918457-3.2802734,4.5458984-7.7729492,6.0595703-11.8735352     c2.7827148-7.5253906,3.1860352-15.9243164,1.1660156-24.2890625l-6.7075195-32.7041016     c-0.2851562-1.1870117-1.0986328-2.2094727-2.2241211-2.7724609c-1.1342773-0.5678711-2.453125-0.6044922-3.6196289-0.1000977     c-1.0322266,0.4487305-1.8310547,1.2709961-2.2480469,2.3134766c-0.3183594,0.7958984-0.3945312,1.6621094-0.2197266,2.5053711     l4.7563477,22.1416016c0.1142578,0.4995117-0.1635742,1.0244141-0.6586914,1.1870117     c-0.5234375,0.1708984-1.0844727-0.0986328-1.2568359-0.6240234c-0.0107422-0.0332031-0.0297852-0.097168-0.0371094-0.1313477     l-4.7602539-22.1601562c-0.2563477-1.2358398-0.1455078-2.4995117,0.3188477-3.6611328     c0.6142578-1.5351562,1.7895508-2.7446289,3.3100586-3.4057617c1.7119141-0.7392578,3.6459961-0.6860352,5.3100586,0.1459961     c1.6547852,0.828125,2.8505859,2.3325195,3.28125,4.1279297l6.7070312,32.7021484     c2.105957,8.7182617,1.6791992,17.519043-1.2416992,25.4174805c-1.5742188,4.265625-4.253418,8.8457031-6.2094727,12.1904297     l-0.425293,0.7285156v6.1044922C125.9775391,118.2236328,125.5297852,118.6713867,124.9775391,118.6713867z"></path></g><g><path d="M126.9975586,97.527832c-0.1147461,0-0.2319336-0.0200195-0.3457031-0.0620117     c-0.5185547-0.190918-0.7836914-0.7661133-0.5927734-1.2841797c2.159668-5.859375,2.6601562-12.4570312,1.4472656-19.0800781     c-0.0991211-0.543457,0.2607422-1.0644531,0.8037109-1.1640625c0.5483398-0.0942383,1.0649414,0.2612305,1.1640625,0.8037109     c1.2768555,6.9755859,0.7451172,13.9370117-1.5380859,20.1318359     C127.7871094,97.2773438,127.4042969,97.527832,126.9975586,97.527832z"></path></g><g><path d="M121.8955078,129.9179688c-2.2509766,0-4.0820312-1.8310547-4.0820312-4.0820312     s1.8310547-4.0825195,4.0820312-4.0825195s4.0820312,1.831543,4.0820312,4.0825195     S124.1464844,129.9179688,121.8955078,129.9179688z M121.8955078,123.753418     c-1.1479492,0-2.0820312,0.934082-2.0820312,2.0825195c0,1.1479492,0.934082,2.0820312,2.0820312,2.0820312     s2.0820312-0.934082,2.0820312-2.0820312C123.9775391,124.6875,123.043457,123.753418,121.8955078,123.753418z"></path></g></g><g><g><g><g><path d="M84.8081055,94.3100586H54.8652344c-0.5522461,0-1-0.4477539-1-1       c0-10.8271484-3.9243164-21.3647461-11.0498047-29.6723633c-5.652832-6.5908203-8.6835938-15.0092773-8.5336914-23.7036133       C34.6015625,21.3881836,49.3417969,6.0673828,67.8388672,5.0546875l0,0       c9.890625-0.5463867,19.2783203,2.8964844,26.4418945,9.6787109       c7.168457,6.7871094,11.1162109,15.9594727,11.1162109,25.8271484c0,8.5131836-3.065918,16.7475586-8.6328125,23.1860352       c-7.0649414,8.1704102-10.9560547,18.6694336-10.9560547,29.5634766       C85.8081055,93.8623047,85.3603516,94.3100586,84.8081055,94.3100586z M55.8652344,93.3100586H55.875H55.8652344z        M55.8544922,92.3100586h27.9638672c0.2314453-11.0151367,4.2705078-21.5883789,11.4331055-29.8720703       c5.2524414-6.074707,8.1455078-13.8442383,8.1455078-21.8774414c0-9.3129883-3.7260742-17.9692383-10.4912109-24.3745117       C86.1445312,9.784668,77.2822266,6.5366211,67.9482422,7.0517578l0,0       C50.4931641,8.0073242,36.5834961,22.4658203,36.2817383,39.9682617       C36.1401367,48.1728516,39,56.1166992,44.3339844,62.3359375       C51.550293,70.7495117,55.6206055,81.3588867,55.8544922,92.3100586z"></path></g><g><g><path d="M69.7875977,110.1064453c-7.5561523,0-13.703125-6.1469727-13.703125-13.703125v-3.0932617        c0-0.5522461,0.4477539-1,1-1h25.4067383c0.5522461,0,1,0.4477539,1,1v3.0932617        C83.4912109,103.9594727,77.34375,110.1064453,69.7875977,110.1064453z M58.0844727,94.3100586v2.0932617        c0,6.453125,5.25,11.703125,11.703125,11.703125c6.4536133,0,11.7036133-5.25,11.7036133-11.703125v-2.0932617H58.0844727z"></path></g></g><g><path d="M69.8364258,94.3100586c-0.5522461,0-1-0.4477539-1-1V68.1000977c0-0.5522461,0.4477539-1,1-1s1,0.4477539,1,1       v25.2099609C70.8364258,93.8623047,70.3886719,94.3100586,69.8364258,94.3100586z"></path></g><g><path d="M63.4287109,72.4580078c-0.159668,0-0.3193359-0.0380859-0.4648438-0.1147461l-6.3950195-3.3579102       c-0.4892578-0.2568359-0.6772461-0.8613281-0.4204102-1.3500977s0.8613281-0.6777344,1.3500977-0.4204102l5.9301758,3.1137695       l5.9321289-3.1137695c0.2910156-0.1533203,0.6381836-0.152832,0.9291992-0.0004883l5.9423828,3.1147461l5.9423828-3.1147461       c0.4912109-0.2568359,1.0942383-0.0668945,1.3500977,0.4213867c0.2563477,0.4892578,0.0678711,1.09375-0.4213867,1.3500977       L76.6967773,72.34375c-0.2910156,0.1523438-0.6376953,0.1523438-0.9287109,0l-5.9418945-3.1142578l-5.9326172,3.1137695       C63.7480469,72.4199219,63.5883789,72.4580078,63.4287109,72.4580078z"></path></g></g></g><g><g><path d="M72.4960938,61.8720703h-5.3227539c-0.4672852,0-0.8725586-0.3237305-0.9755859-0.7792969l-1.0483398-4.637207      c-1.9619141-0.4775391-3.8325195-1.2553711-5.5756836-2.3188477l-4.0273438,2.5424805      c-0.3950195,0.2495117-0.9111328,0.1914062-1.2407227-0.1386719l-3.7636719-3.7636719      c-0.3305664-0.3305664-0.3881836-0.8457031-0.1386719-1.2407227l2.543457-4.0283203      c-1.0629883-1.7426758-1.840332-3.6132812-2.3178711-5.5761719l-4.6362305-1.0478516      c-0.4560547-0.1030273-0.7797852-0.5083008-0.7797852-0.9755859v-5.3227539      c0-0.4672852,0.3237305-0.8725586,0.7792969-0.9755859l4.6376953-1.0483398      c0.4780273-1.9633789,1.2553711-3.8334961,2.3188477-5.5756836l-2.5429688-4.0273438      c-0.2495117-0.3950195-0.1918945-0.9101562,0.1386719-1.2407227l3.7641602-3.7636719      c0.3300781-0.3295898,0.8461914-0.3876953,1.2407227-0.1386719l4.0283203,2.5429688      c1.7431641-1.0629883,3.6137695-1.840332,5.5761719-2.3178711l1.0478516-4.6362305      C66.3046875,12.9487305,66.7099609,12.625,67.1772461,12.625H72.5c0.4672852,0,0.8725586,0.3237305,0.9755859,0.7797852      l1.0478516,4.637207c1.9628906,0.4775391,3.8334961,1.2553711,5.5761719,2.3183594l4.0268555-2.5424805      c0.3955078-0.2485352,0.9111328-0.190918,1.2407227,0.1386719l3.7641602,3.7636719      c0.3305664,0.3305664,0.3881836,0.8457031,0.1386719,1.2407227l-2.5429688,4.0283203      c1.0625,1.7426758,1.8398438,3.612793,2.3173828,5.5761719l4.6357422,1.0478516      c0.4560547,0.1030273,0.7797852,0.5083008,0.7797852,0.9755859v5.3227539c0,0.4672852-0.3237305,0.8725586-0.7792969,0.9755859      l-4.637207,1.0483398c-0.4775391,1.9624023-1.2553711,3.8325195-2.3188477,5.5756836l2.5424805,4.0273438      c0.2495117,0.3950195,0.1918945,0.9101562-0.1386719,1.2407227l-3.7636719,3.7636719      c-0.3295898,0.3300781-0.8447266,0.3881836-1.2407227,0.1386719l-4.027832-2.5424805      c-1.7431641,1.0625-3.6137695,1.8398438-5.5766602,2.3173828l-1.0478516,4.6357422      C73.3686523,61.5483398,72.9633789,61.8720703,72.4960938,61.8720703z M67.9726562,59.8720703h3.7241211l1.0107422-4.472168      c0.0864258-0.3823242,0.3881836-0.6787109,0.7714844-0.7587891c2.1650391-0.4511719,4.2138672-1.3037109,6.0883789-2.5341797      c0.3969727-0.2607422,0.9165039-0.2041016,1.2485352,0.1210938l3.699707,2.3359375l2.6337891-2.6337891l-2.375-3.762207      c-0.2836914-0.3310547-0.3266602-0.8129883-0.0795898-1.1889648c1.2299805-1.8740234,2.0825195-3.9208984,2.5332031-6.0839844      c0.0800781-0.3833008,0.3764648-0.6850586,0.7583008-0.7714844l4.4736328-1.0112305v-3.7241211l-4.472168-1.0107422      c-0.3823242-0.0864258-0.6787109-0.3881836-0.7587891-0.7714844c-0.4511719-2.1655273-1.3037109-4.2138672-2.5341797-6.0878906      c-0.2607422-0.3969727-0.2041016-0.9165039,0.1210938-1.2485352l2.3359375-3.7001953l-2.6337891-2.6333008l-3.7617188,2.375      c-0.3305664,0.2822266-0.8120117,0.3256836-1.1889648,0.0791016c-1.8735352-1.2294922-3.9208984-2.081543-6.0844727-2.5332031      c-0.3837891-0.0800781-0.6850586-0.3764648-0.7714844-0.7587891L71.7006836,14.625h-3.7241211l-1.0112305,4.4726562      c-0.0864258,0.3818359-0.3881836,0.6782227-0.7714844,0.7583008c-2.1640625,0.4506836-4.2124023,1.3037109-6.0883789,2.5341797      c-0.3950195,0.2607422-0.9160156,0.2041016-1.2480469-0.1210938l-3.699707-2.3359375l-2.6337891,2.6337891l2.375,3.762207      c0.2836914,0.3310547,0.3266602,0.8129883,0.0795898,1.1889648c-1.2294922,1.8730469-2.0820312,3.9199219-2.5332031,6.0839844      c-0.0800781,0.3833008-0.3764648,0.6850586-0.7583008,0.7714844l-4.4741211,1.0112305v3.7241211l4.4726562,1.0107422      c0.3823242,0.0864258,0.6787109,0.3881836,0.7587891,0.7714844c0.4506836,2.1645508,1.3037109,4.2128906,2.5341797,6.0878906      c0.2602539,0.3964844,0.2045898,0.9155273-0.1201172,1.2475586l-2.3369141,3.7011719l2.6333008,2.6333008l3.762207-2.375      c0.3300781-0.2832031,0.8105469-0.3271484,1.1889648-0.0791016c1.8745117,1.2299805,3.9213867,2.0825195,6.0839844,2.5332031      c0.3833008,0.0800781,0.6850586,0.3764648,0.7714844,0.7583008L67.9726562,59.8720703z M93.4599609,39.9116211h0.0097656      H93.4599609z"></path></g><g><path d="M69.8364258,48.4091797c-6.1538086,0-11.1606445-5.0068359-11.1606445-11.1606445      s5.0068359-11.1606445,11.1606445-11.1606445c6.1542969,0,11.1611328,5.0068359,11.1611328,11.1606445      S75.9907227,48.4091797,69.8364258,48.4091797z M69.8364258,28.0878906c-5.0512695,0-9.1606445,4.109375-9.1606445,9.1606445      s4.109375,9.1606445,9.1606445,9.1606445s9.1611328-4.109375,9.1611328-9.1606445S74.8876953,28.0878906,69.8364258,28.0878906z      "></path></g></g></g></g></svg>