<svg height='100px' width='100px'  fill="#0059B3" xmlns="http://www.w3.org/2000/svg" xmlns:xlink="http://www.w3.org/1999/xlink" version="1.1" x="0px" y="0px" viewBox="-489 491 100 100" enable-background="new -489 491 100 100" xml:space="preserve"><path d="M-406.9,566c1.8-3.6,3.6-7.1,3.6-14.3c0-3.6-1.8-10.7-8.9-10.7s-8.9,7.1-8.9,10.7c0,7.1,1.8,10.7,3.6,14.3c0,3.1,0,3.5-8,7  c-8.1-3.5-8.1-3.9-8.1-7c1.8-3.6,3.6-7.1,3.6-14.3c0-3.6-1.8-10.7-8.9-10.7s-8.9,7.1-8.9,10.7c0,7.1,1.8,10.7,3.6,14.3  c0,3.1,0,3.5-8,7c-8.1-3.5-8.1-3.9-8.1-7c1.8-3.6,3.6-7.1,3.6-14.3c0-3.6-1.8-10.7-8.9-10.7s-8.9,7.1-8.9,10.7  c0,7.1,1.8,10.7,3.6,14.3c0,3.6,0,3.6-12.5,8.9v8.9h89.3v-8.9C-406.9,569.6-406.9,569.6-406.9,566z M-392.6,498.1h-92.9  c-3.6,0-3.6,0-3.6,3.6v57.1c0,3.6,0,3.6,3.6,3.6h3.6v-57.1h85.7v57.1h3.6c3.6,0,3.6,0,3.6-3.6v-57.1  C-389,498.1-389,498.1-392.6,498.1z"></path></svg>