<svg height='100px' width='100px'  fill="#0059B3" xmlns="http://www.w3.org/2000/svg" data-name="Layer 1" viewBox="0 0 100 100" x="0px" y="0px"><title>All3</title><path d="M48.43,0A47.09,47.09,0,0,1,67.22,3.61,25.78,25.78,0,0,1,79.43,13.78a24.31,24.31,0,0,1,2.79,19.09c-1.1,4.46-3.8,8.05-7,11.26a73.41,73.41,0,0,1-8.55,6.95c-2.19,1.6-4.33,3.28-6.46,5A11.18,11.18,0,0,0,57,60.69q-0.81,1.91-1.6,3.83C54.2,67.6,51.78,69,48.61,69.2A8.91,8.91,0,0,1,43,68.09a9,9,0,0,1-4.21-8.21,16.12,16.12,0,0,1,4.5-10.74c3.09-3.51,6.91-6.17,10.53-9.06a29.14,29.14,0,0,0,7.15-7.45c2.63-4.35,1.81-11.5-2.67-14.67a13.05,13.05,0,0,0-5.43-2.21,18.78,18.78,0,0,0-8.94.5c-3.36,1.06-5.51,3.5-7.09,6.54-1.15,2.22-2.18,4.52-3.5,6.64-2.22,3.58-5.93,4.36-9.66,3.68A8.28,8.28,0,0,1,19.33,31,7.82,7.82,0,0,1,17,24.93a19.33,19.33,0,0,1,3.49-10.79A31.57,31.57,0,0,1,35.62,2.5,37.52,37.52,0,0,1,48.43,0Z"></path><circle cx="47.34" cy="89.19" r="10.81"></circle></svg>