<svg height='100px' width='100px'  fill="#0D395F" xmlns="http://www.w3.org/2000/svg" xmlns:xlink="http://www.w3.org/1999/xlink" version="1.1" x="0px" y="0px" viewBox="0 0 100 100" enable-background="new 0 0 100 100" xml:space="preserve"><path d="M74.8,77.8c-2.3-3-3.6-6.8-3.6-10.6V50.1c4.9-5.6,7.6-13.1,7-21.3c-1.1-14-12.5-25.3-26.5-26.4c-16.4-1.3-30.1,11-31.2,26.9  L20.5,30c0,2.6-1,6.7-2.2,9c-1.3,2.4-2.6,4.8-3.7,6.5c-1.1,1.7,0.1,3.9,2.1,3.9h3.8v13.9c0,2.8,2.3,5.1,5.1,5.1h10.5v5.3  c0,3.6-1.4,7.1-4,9.6l-8,8.1c-2.3,2.4-0.7,6.4,2.6,6.4h27.1h28c3.3,0,5.2-3.8,3.2-6.5L74.8,77.8z M34.9,34c-0.7-3.1-0.4-6.5,1-9.5  c0.9-1.9,2.1-3.5,3.5-4.8c4.7-4.3,11.9-5.2,17.6-1.7l2-3.2c0.1-0.1,0.2-0.2,0.4-0.2c0.1,0,0.3,0.1,0.3,0.3l3.6,8.7  c0.2,0.4-0.1,0.8-0.5,0.9l-9.4,0.8c-0.1,0-0.3-0.1-0.4-0.2c-0.1-0.1-0.1-0.3,0-0.4l1.9-3.2c-3.8-2.2-8.4-1.9-11.7,0.5  c-1.3,0.9-2.4,2.1-3.2,3.6c-1.4,2.5-1.6,5.3-0.9,7.9c0.1,0.3-0.1,0.7-0.5,0.7l-3,0.3C35.2,34.4,34.9,34.2,34.9,34z M62.9,37.9  c-0.9,1.9-2.1,3.5-3.5,4.8c-4.7,4.3-11.9,5.2-17.6,1.7l-2,3.2c-0.1,0.1-0.2,0.2-0.4,0.2c-0.1,0-0.3-0.1-0.3-0.3l-3.6-8.7  c-0.2-0.4,0.1-0.8,0.5-0.9l9.4-0.8c0.1,0,0.3,0.1,0.4,0.2c0.1,0.1,0.1,0.3,0,0.4l-1.9,3.2c3.8,2.2,8.4,1.9,11.7-0.5  c1.3-0.9,2.4-2.1,3.2-3.6c1.4-2.5,1.6-5.3,0.9-7.9c-0.1-0.3,0.1-0.7,0.5-0.7l3-0.3c0.3,0,0.5,0.2,0.6,0.4  C64.6,31.5,64.3,34.8,62.9,37.9z"></path></svg>