<svg height='100px' width='100px'  fill="#0059B3" xmlns="http://www.w3.org/2000/svg" xmlns:xlink="http://www.w3.org/1999/xlink" version="1.1" x="0px" y="0px" viewBox="0 0 512 512" enable-background="new 0 0 512 512" xml:space="preserve"><path d="M484.5,230.7c-14,0-25.4,11.4-25.4,25.4c0,112-91.1,203.1-203.1,203.1c-112,0-203.1-91.1-203.1-203.1S144,53,256,53  c44.7,0,87.1,14.5,122.1,41l-43.2,43.2c-6.4,6.4-1.9,17.3,7.2,17.3h132.2c5.6,0,10.2-4.5,10.2-10.2V12.2c0-9-10.9-13.6-17.3-7.2  l-52.8,52.8C369.5,21.9,314.3,2.2,256,2.2C116,2.2,2.1,116.1,2.1,256.1S116,510,256,510c140,0,253.9-113.9,253.9-253.9  C509.9,242.1,498.5,230.7,484.5,230.7z"></path></svg>