<svg height='100px' width='100px'  fill="#0D395F" xmlns="http://www.w3.org/2000/svg" xmlns:xlink="http://www.w3.org/1999/xlink" version="1.1" x="0px" y="0px" viewBox="0 0 100 100" style="enable-background:new 0 0 100 100;" xml:space="preserve"><g><path d="M37.7,8.7c-1.4-1.4-3.6-1.4-5,0c-1.4,1.4-1.4,3.6,0,5l8.8,8.8L22.4,41.5l-8.8-8.8c-1.4-1.4-3.6-1.4-5,0   c-1.4,1.4-1.4,3.6,0,5l53.6,53.6c0.7,0.7,1.6,1,2.5,1s1.8-0.3,2.5-1c1.4-1.4,1.4-3.6,0-5l-8.8-8.8l19.1-19.1l8.8,8.8   c0.7,0.7,1.6,1,2.5,1s1.8-0.3,2.5-1c1.4-1.4,1.4-3.6,0-5L37.7,8.7z M46.5,27.4L57.1,38L38,57.1L27.4,46.5L46.5,27.4z M53.5,72.6   L42.9,62L62,42.9l10.6,10.6L53.5,72.6z"></path></g></svg>