<svg height='100px' width='100px'  fill="#0059B3" xmlns="http://www.w3.org/2000/svg" xmlns:xlink="http://www.w3.org/1999/xlink" version="1.1" x="0px" y="0px" viewBox="0 0 1000 1000" enable-background="new 0 0 1000 1000" xml:space="preserve"><path d="M836.507,366.735h-0.141h-214.97l-66.506-204.508c-7.726-23.785-29.903-39.887-54.916-39.887c0,0,0,0-0.014,0  c-25.012,0-47.176,16.115-54.916,39.9l-66.421,204.494H163.57c-25.026,0-47.19,16.115-54.93,39.916  c-7.727,23.784,0.747,49.854,20.994,64.56L303.631,597.58L237.196,802.06c-7.726,23.8,0.748,49.869,20.979,64.574  c10.124,7.347,22.037,11.025,33.951,11.025s23.827-3.681,33.95-11.025L500.06,740.235l174.055,126.397  c10.123,7.346,22.021,11.025,33.936,11.025s23.828-3.68,33.951-11.039c20.246-14.706,28.706-40.775,20.965-64.574l-66.505-204.521  L869.118,472.07c15.143-10.419,25.067-27.847,25.067-47.584C894.188,392.593,868.398,366.735,836.507,366.735z"></path></svg>