<svg height='100px' width='100px'  fill="#0D395F" xmlns="http://www.w3.org/2000/svg" xmlns:xlink="http://www.w3.org/1999/xlink" version="1.1" x="0px" y="0px" viewBox="0 0 91 91" enable-background="new 0 0 91 91" xml:space="preserve"><g><path d="M25.072,49.869c2.769,0,5.021-2.252,5.021-5.019c0-2.766-2.252-5.016-5.021-5.016s-5.021,2.25-5.021,5.016   C20.052,47.617,22.304,49.869,25.072,49.869z"></path><path d="M46.218,49.869c2.764,0,5.014-2.252,5.014-5.019c0-2.766-2.25-5.016-5.014-5.016c-2.771,0-5.023,2.25-5.023,5.016   C41.194,47.617,43.447,49.869,46.218,49.869z"></path><path d="M67.357,49.869c2.768,0,5.019-2.252,5.019-5.019c0-2.766-2.251-5.016-5.019-5.016c-2.769,0-5.021,2.25-5.021,5.016   C62.337,47.617,64.589,49.869,67.357,49.869z"></path><path d="M6.751,83.673c-0.165,0.878,0.148,1.776,0.822,2.362c0.465,0.402,1.051,0.615,1.647,0.615c0.271,0,0.544-0.045,0.808-0.135   l16.246-5.518c5.317,1.695,14.121,3.127,19.459,3.127c24.508,0,44.446-17.795,44.446-39.667S70.241,4.791,45.733,4.791   c-24.51,0-44.449,17.794-44.449,39.667c0,8.47,2.922,16.498,8.463,23.291L6.751,83.673z M6.31,44.458   c0-19.102,17.686-34.642,39.424-34.642c21.736,0,39.421,15.54,39.421,34.642c0,19.101-17.685,34.642-39.421,34.642   c-4.992,0-14.048-1.519-18.636-3.125c-0.529-0.185-1.106-0.188-1.638-0.007l-12.976,4.407l2.421-12.867   c0.142-0.753-0.068-1.529-0.57-2.109C9.085,59.337,6.31,52.096,6.31,44.458z"></path></g></svg>